<?xml version="1.0" encoding="UTF-8"?>
<svg width="752pt" height="752pt" version="1.1" viewBox="0 0 752 752" xmlns="http://www.w3.org/2000/svg">
 <defs>
  <clipPath id="a">
   <path d="m139.21 195h473.58v362h-473.58z"/>
  </clipPath>
 </defs>
 <path d="m272.41 319.69c11.973 0 23.453-4.7578 31.918-13.223 8.4648-8.4648 13.219-19.945 13.219-31.918 0-11.969-4.7539-23.453-13.219-31.918-8.4648-8.4648-19.945-13.219-31.918-13.219s-23.453 4.7539-31.918 13.219c-8.4648 8.4648-13.223 19.949-13.223 31.918 0.011719 11.969 4.7695 23.445 13.234 31.906 8.4609 8.4648 19.938 13.223 31.906 13.234zm0-75.477v-0.003906c8.0469 0 15.762 3.1992 21.453 8.8867 5.6875 5.6914 8.8867 13.406 8.8867 21.453s-3.1992 15.766-8.8867 21.453c-5.6914 5.6914-13.406 8.8867-21.453 8.8867s-15.766-3.1953-21.453-8.8867c-5.6914-5.6875-8.8867-13.406-8.8867-21.453 0.011719-8.043 3.2109-15.754 8.8984-21.441s13.398-8.8867 21.441-8.8984z"/>
 <g clip-path="url(#a)">
  <path d="m272.41 462.25c4.3164 0 8.5977-0.21094 12.84-0.62891 2.8125-0.25781 5.625-0.66406 8.3984-1.1094l152.91 94.496v-0.003906c2.9844 1.832 6.8438 1.3242 9.25-1.2227l105.18-111.18 7.8789 3.9219h0.003906c2.1211 1.0586 4.6211 1.0312 6.7227-0.066406 2.1016-1.0977 3.5508-3.1367 3.8945-5.4805l7.1406-57.57c6.832-3.4805 12.57-8.7734 16.594-15.301 4.0195-6.5273 6.1641-14.035 6.1992-21.699l3.1445-73.773c0.13672-0.95703 0.21094-1.9219 0.22266-2.8867v-44.398c-0.011719-5.7383-2.2461-11.254-6.2344-15.379-3.9883-4.1289-9.4219-6.5508-15.156-6.7617-5.7383-0.20703-11.332 1.8125-15.609 5.6406-4.0703-3.6406-9.3398-5.6562-14.801-5.6562-5.457 0-10.727 2.0156-14.797 5.6562-4.0703-3.6406-9.3398-5.6562-14.801-5.6562-5.4609 0-10.73 2.0156-14.797 5.6562-4.2812-3.8281-9.875-5.8477-15.609-5.6406-5.7383 0.21094-11.168 2.6328-15.156 6.7617-3.9883 4.125-6.2227 9.6406-6.2344 15.379v44.398 1.5156 18.5l-6.1055-8.3984c-0.625-0.96484-1.3711-1.8477-2.2188-2.6289-1.8672-2.3672-4.4727-4.0469-7.4023-4.7695l-34.262-11.098-0.77734-0.22266 0.003907-0.003906c-7.3945-1.5273-14.668 3.0938-16.43 10.434l-2.7734 12.246c-0.77734 3.5156-0.10937 7.1953 1.8516 10.215 1.8867 2.9414 4.8242 5.0586 8.2109 5.918l23.531 8.5078 20.203 27.824c2.5547 3.6992 4.6602 6.1055 6.5117 8.3984 4.0352 4.4883 7.207 9.6797 9.3594 15.316 4.6758 11.648 14.266 20.633 26.195 24.531v24.418c0 2.8086 1.5938 5.375 4.1055 6.625l5.0703 2.5547-68.375 70.703-76.883-70.297c23.312-24.547 36.27-57.129 36.188-90.98 0-35.324-14.035-69.203-39.012-94.184-24.98-24.98-58.859-39.012-94.184-39.012s-69.203 14.031-94.184 39.012c-24.98 24.98-39.012 58.859-39.012 94.184s14.031 69.203 39.012 94.184c24.98 24.977 58.859 39.012 94.184 39.012zm38.109-21.09-2.8867 0.92578-2.332 0.70312-2.9609 0.8125-2.332 0.59375-3.0703 0.66406-2.332 0.48047-3.1445 0.51953-2.293 0.37109-3.3281 0.40625-2.1836 0.25781-3.6992 0.25781h-1.8516-5.625-6.0664-1.9961l-3.9961-0.33203-2.4062-0.29688-3.6992-0.48047-2.5547-0.44531-3.3672-0.62891-2.5898-0.59375-2.9922-0.73828-2.5898-0.73828-3.1445-0.92578-2.5898-0.85156-3.0703-1.0742-2.7031-1.1445-2.9961-1.2227-2.4805-1.1094-2.9609-1.3672-2.4414-1.2578-2.8477-1.5156-2.3672-1.3672-2.7734-1.6641-2.332-1.4805-2.6641-1.8125-2.2578-1.5898-2.5898-1.9609-2.1836-1.7383-2.4805-2.0703-2.1094-1.8516-2.2188-2.0391-2.1445-1.8516-0.70312-0.73828c7.5703-23.539 25.031-42.605 47.812-52.215s48.621-8.8047 70.762 2.1992c22.141 11.008 38.383 31.121 44.477 55.082l-0.59375 0.51953-2.0352 1.7383-2.2188 1.8516-2.1094 1.6289-2.332 1.7383-2.1445 1.5156-2.4062 1.6289-2.1836 1.4062-2.5156 1.5547-2.2188 1.2969-2.5898 1.4062-2.2578 1.1836-2.6641 1.2969-2.293 1.0742-2.7383 1.1836-2.332 0.96094-2.8125 1.0352zm255.55-12.43-45.766-22.832v-17.648h50.801zm17.129-203.27c0-4.0859 3.3164-7.3984 7.4023-7.3984s7.3984 3.3125 7.3984 7.3984v45.805c-0.41797 4.0859-4.0703 7.0625-8.1562 6.6406-4.0898-0.41797-7.0625-4.0703-6.6445-8.1562zm-29.598 0c0-4.0859 3.3125-7.3984 7.3984-7.3984 4.0898 0 7.4023 3.3125 7.4023 7.3984v44.398c0 4.0859-3.3125 7.4023-7.4023 7.4023-4.0859 0-7.3984-3.3164-7.3984-7.4023zm-29.598 0c0-4.0859 3.3125-7.3984 7.3984-7.3984 4.0859 0 7.3984 3.3125 7.3984 7.3984v44.398c0 4.0859-3.3125 7.4023-7.3984 7.4023-4.0859 0-7.3984-3.3164-7.3984-7.4023zm-29.598 0c0-4.0859 3.3125-7.3984 7.3984-7.3984s7.3984 3.3125 7.3984 7.3984v44.398c0.20703 4.0859-2.9414 7.5664-7.0273 7.7695-4.0898 0.20703-7.5664-2.9414-7.7695-7.0273v-2.9258c0.011718-0.24609 0.011718-0.49219 0-0.73828zm-1.3672 130.61h-0.003906c-2.6992-7.0312-6.6328-13.52-11.617-19.164-1.7383-2.1445-3.6992-4.5508-5.9922-7.7344l-21.531-29.598h-0.003907c-0.86719-1.2031-2.082-2.1211-3.4766-2.625l-25.898-9.4336 2.2578-9.9141 33.039 10.73h0.40625v-0.003906c0.38281 0.51172 0.82812 0.96875 1.332 1.3672l19.719 27.156c1.918 2.3672 5.0898 3.3203 7.9961 2.3945 2.9023-0.92578 4.9414-3.5352 5.1406-6.5742v-21.754c3.7539 1.3438 7.8047 1.6406 11.715 0.85547 3.9102-0.78125 7.5352-2.6133 10.484-5.2969 4.0664 3.6406 9.3359 5.6523 14.797 5.6523 5.4609 0 10.73-2.0117 14.801-5.6523 4.0703 3.6406 9.3398 5.6523 14.797 5.6523 5.4609 0 10.73-2.0117 14.801-5.6523 5.7578 5.1641 13.793 6.957 21.199 4.7344l-2.332 55.09 0.003906 0.003907c-0.13672 7.3477-3.1797 14.344-8.4648 19.457-5.2852 5.1094-12.379 7.918-19.73 7.8086h-47.172c-5.6172 0.007812-11.113-1.6523-15.789-4.7656-4.6758-3.1172-8.3203-7.5469-10.48-12.734zm-51.246 150.07c2.9609 2.707 7.5391 2.5586 10.32-0.33203l76.293-79.105 18.5 9.2852-97.859 103.6-135.16-83.91c16.484-5.3906 31.746-13.977 44.914-25.27zm-169.38-295.47c31.398 0 61.516 12.473 83.719 34.676s34.676 52.316 34.676 83.719c0.11719 27.93-9.7656 54.977-27.859 76.254-8.8711-25.5-27.715-46.305-52.215-57.645s-52.555-12.246-77.734-2.5078c-25.18 9.7383-45.328 29.285-55.82 54.156-17.414-23.617-25.438-52.863-22.512-82.062 2.9258-29.203 16.594-56.273 38.348-75.969 21.758-19.695 50.051-30.609 79.398-30.621z"/>
 </g>
 <path d="m524.48 345.25v-0.44531 0.003906c0.019532-2.8047 2.3008-5.0703 5.1055-5.0703h29.156c2.8203 0 5.1055 2.2852 5.1055 5.1055 0 4.0859 3.3125 7.4023 7.3984 7.4023 4.0859 0 7.3984-3.3164 7.3984-7.4023-0.007813-5.2656-2.1055-10.312-5.8281-14.039-3.7227-3.7227-8.7734-5.8164-14.039-5.8281h-29.227c-5.2734 0.011719-10.328 2.1094-14.055 5.8438-3.7227 3.7305-5.8164 8.7891-5.8164 14.062v0.48047c0 4.0859 3.3125 7.3984 7.4023 7.3984 4.0859 0 7.3984-3.3125 7.3984-7.3984z"/>
</svg>
